<svg width="25" height="26" viewBox="0 0 25 26" fill="none" xmlns="http://www.w3.org/2000/svg">
<path d="M16.8753 14.8078C16.8756 14.7144 16.855 14.6221 16.815 14.5378C16.775 14.4534 16.7166 14.3791 16.644 14.3203L12.894 11.3015C12.7822 11.2096 12.6419 11.1593 12.4972 11.1593C12.3524 11.1593 12.2121 11.2096 12.1003 11.3015L8.35029 14.4265C8.22266 14.5326 8.14239 14.685 8.12716 14.8503C8.11192 15.0156 8.16296 15.1801 8.26904 15.3078C8.37513 15.4354 8.52758 15.5157 8.69284 15.5309C8.85811 15.5461 9.02266 15.4951 9.15029 15.389L12.5003 12.5953L15.8503 15.2953C15.942 15.3717 16.0537 15.4202 16.1722 15.4352C16.2907 15.4501 16.4109 15.4308 16.5188 15.3795C16.6266 15.3282 16.7175 15.2471 16.7807 15.1458C16.8439 15.0445 16.8767 14.9272 16.8753 14.8078Z" fill="#1E3304" fill-opacity="0.91"/>
</svg>
