<svg width="27" height="27" viewBox="0 0 27 27" fill="none" xmlns="http://www.w3.org/2000/svg">
<path d="M21.4375 21.0943V24.8125H5.5625V21.094C5.56421 19.6607 6.13437 18.2865 7.14793 17.2729C8.16148 16.2594 9.53567 15.6892 10.969 15.6875H16.031C17.4643 15.6892 18.8385 16.2594 19.8521 17.2729C20.8657 18.2865 21.4359 19.6608 21.4375 21.0943Z" stroke="#2E3E4D"/>
<path d="M9.00487 10.5973C8.41082 9.70825 8.09375 8.66301 8.09375 7.59375C8.09375 6.15992 8.66334 4.78482 9.6772 3.77095C10.6911 2.75709 12.0662 2.1875 13.5 2.1875C14.5693 2.1875 15.6145 2.50457 16.5036 3.09862C17.3926 3.69266 18.0855 4.537 18.4947 5.52487C18.9039 6.51273 19.011 7.59975 18.8024 8.64846C18.5938 9.69717 18.0789 10.6605 17.3228 11.4165C16.5667 12.1726 15.6034 12.6875 14.5547 12.8961C13.506 13.1047 12.419 12.9977 11.4311 12.5885C10.4433 12.1793 9.59891 11.4864 9.00487 10.5973Z" stroke="#2E3E4D"/>
</svg>
