<svg width="17" height="17" viewBox="0 0 17 17" fill="none" xmlns="http://www.w3.org/2000/svg">
<path d="M16.4902 13.4604H15.4702V2.68749C15.4702 1.5351 14.4542 0.59761 13.2053 0.59761H2.04025C2.01705 0.59761 1.99444 0.599807 1.97259 0.603885C1.9669 0.604042 1.96146 0.603179 1.95568 0.603571C0.954546 0.679022 0.170166 1.46506 0.170166 2.39298V3.42114C0.170166 3.5944 0.322401 3.73487 0.510166 3.73487H3.23017V13.8695C3.23017 15.2685 4.23112 16.2839 5.61016 16.2839H14.8656C15.9489 16.2839 16.8302 15.4707 16.8302 14.4712V13.7741C16.8302 13.6008 16.6779 13.4604 16.4902 13.4604ZM0.850166 3.10742V2.39298C0.850166 1.7893 1.36017 1.27808 2.0111 1.22898C2.01977 1.22836 2.02784 1.22592 2.03626 1.22467C2.03762 1.22467 2.03889 1.22506 2.04025 1.22506C2.76309 1.22506 3.23017 1.71761 3.23017 2.47996V3.10742H0.850166ZM6.97016 13.7741V14.2447C6.97016 15.0759 6.41086 15.6564 5.61016 15.6564C4.6092 15.6564 3.91017 14.9216 3.91017 13.8695V2.47996C3.91017 1.98028 3.75394 1.54859 3.48134 1.22506H13.2053C14.0791 1.22506 14.7902 1.88106 14.7902 2.68749V13.4604H7.31016C7.1224 13.4604 6.97016 13.6008 6.97016 13.7741ZM16.1502 14.4712C16.1502 15.1248 15.5739 15.6564 14.8656 15.6564H7.12257C7.455 15.2982 7.65025 14.8083 7.65025 14.2447V14.0878H16.1502V14.4712H16.1502Z" fill="#616161"/>
<path d="M7.7251 10.3918L9.12887 11.502C9.19253 11.5524 9.27133 11.5776 9.35012 11.5776C9.42892 11.5776 9.50771 11.5524 9.57138 11.502L10.9752 10.3918C11.671 9.84133 12.0701 9.04063 12.0701 8.19506V5.93052C12.0701 5.83828 12.0261 5.75075 11.9498 5.69114C11.8737 5.63154 11.7728 5.60597 11.6742 5.62103C10.0371 5.87295 9.70143 5.26275 9.67151 5.20009C9.62994 5.06558 9.50202 4.97256 9.35012 4.97256C9.19823 4.97256 9.0703 5.06558 9.02874 5.20009C8.9989 5.26267 8.66315 5.87295 7.02606 5.62103C6.92729 5.60589 6.82665 5.63154 6.7504 5.69114C6.67416 5.75075 6.63013 5.83828 6.63013 5.93052V8.19506C6.63013 9.04071 7.0292 9.84141 7.7251 10.3918ZM7.31013 6.28824C8.42592 6.38628 9.03205 6.09907 9.35012 5.82573C9.66819 6.09907 10.2746 6.38652 11.3901 6.28824V8.19514C11.3901 8.85741 11.0776 9.48439 10.5326 9.91545L9.35012 10.8506L8.1676 9.91537C7.62267 9.48432 7.31013 8.85734 7.31013 8.19506V6.28824Z" fill="#616161"/>
</svg>
