<svg width="18" height="18" viewBox="0 0 18 18" fill="none" xmlns="http://www.w3.org/2000/svg">
<path d="M8.97576 0.508789C7.32759 0.508789 5.71642 0.997531 4.34601 1.91321C2.9756 2.82889 1.9075 4.13038 1.27677 5.65309C0.646036 7.17581 0.481008 8.85137 0.802552 10.4679C1.1241 12.0844 1.91777 13.5692 3.08321 14.7347C4.24864 15.9001 5.7335 16.6938 7.35001 17.0153C8.96652 17.3369 10.6421 17.1719 12.1648 16.5411C13.6875 15.9104 14.989 14.8423 15.9047 13.4719C16.8204 12.1015 17.3091 10.4903 17.3091 8.84212C17.3091 7.74777 17.0935 6.66414 16.6748 5.65309C16.256 4.64205 15.6421 3.72339 14.8683 2.94957C14.0945 2.17574 13.1758 1.56192 12.1648 1.14313C11.1537 0.724337 10.0701 0.508789 8.97576 0.508789ZM11.2341 9.91712C11.3122 9.99459 11.3742 10.0868 11.4165 10.1883C11.4588 10.2899 11.4806 10.3988 11.4806 10.5088C11.4806 10.6188 11.4588 10.7277 11.4165 10.8293C11.3742 10.9308 11.3122 11.023 11.2341 11.1005C11.1566 11.1786 11.0645 11.2406 10.9629 11.2829C10.8614 11.3252 10.7524 11.347 10.6424 11.347C10.5324 11.347 10.4235 11.3252 10.3219 11.2829C10.2204 11.2406 10.1282 11.1786 10.0508 11.1005L8.97576 10.0171L7.90076 11.1005C7.82329 11.1786 7.73113 11.2406 7.62958 11.2829C7.52803 11.3252 7.41911 11.347 7.3091 11.347C7.19909 11.347 7.09016 11.3252 6.98862 11.2829C6.88707 11.2406 6.7949 11.1786 6.71743 11.1005C6.63932 11.023 6.57733 10.9308 6.53502 10.8293C6.49271 10.7277 6.47093 10.6188 6.47093 10.5088C6.47093 10.3988 6.49271 10.2899 6.53502 10.1883C6.57733 10.0868 6.63932 9.99459 6.71743 9.91712L7.80076 8.84212L6.71743 7.76712C6.56051 7.6102 6.47235 7.39737 6.47235 7.17546C6.47235 6.95354 6.56051 6.74071 6.71743 6.58379C6.87435 6.42687 7.08718 6.33871 7.3091 6.33871C7.53101 6.33871 7.74384 6.42687 7.90076 6.58379L8.97576 7.66712L10.0508 6.58379C10.2077 6.42687 10.4205 6.33871 10.6424 6.33871C10.8643 6.33871 11.0772 6.42687 11.2341 6.58379C11.391 6.74071 11.4792 6.95354 11.4792 7.17546C11.4792 7.39737 11.391 7.6102 11.2341 7.76712L10.1508 8.84212L11.2341 9.91712Z" fill="#616161"/>
</svg>
