<svg width="21" height="20" viewBox="0 0 21 20" fill="none" xmlns="http://www.w3.org/2000/svg">
<rect x="7.10558" y="6.13184" width="6.78882" height="7.73634" fill="#FCFCFC"/>
<path d="M10.5 2.63525C8.85183 2.63525 7.24067 3.124 5.87026 4.03967C4.49985 4.95535 3.43174 6.25684 2.80101 7.77956C2.17028 9.30228 2.00525 10.9778 2.3268 12.5943C2.64834 14.2108 3.44201 15.6957 4.60745 16.8611C5.77289 18.0266 7.25775 18.8203 8.87426 19.1418C10.4908 19.4633 12.1663 19.2983 13.689 18.6676C15.2118 18.0369 16.5132 16.9687 17.4289 15.5983C18.3446 14.2279 18.8333 12.6168 18.8333 10.9686C18.8333 9.87424 18.6178 8.79061 18.199 7.77956C17.7802 6.76851 17.1664 5.84985 16.3926 5.07603C15.6187 4.30221 14.7001 3.68838 13.689 3.26959C12.678 2.8508 11.5944 2.63525 10.5 2.63525ZM12.7583 12.0436C12.8364 12.1211 12.8984 12.2132 12.9408 12.3148C12.9831 12.4163 13.0048 12.5252 13.0048 12.6353C13.0048 12.7453 12.9831 12.8542 12.9408 12.9557C12.8984 13.0573 12.8364 13.1495 12.7583 13.2269C12.6809 13.305 12.5887 13.367 12.4872 13.4093C12.3856 13.4516 12.2767 13.4734 12.1667 13.4734C12.0567 13.4734 11.9477 13.4516 11.8462 13.4093C11.7446 13.367 11.6525 13.305 11.575 13.2269L10.5 12.1436L9.42501 13.2269C9.34754 13.305 9.25537 13.367 9.15382 13.4093C9.05227 13.4516 8.94335 13.4734 8.83334 13.4734C8.72333 13.4734 8.61441 13.4516 8.51286 13.4093C8.41131 13.367 8.31914 13.305 8.24168 13.2269C8.16357 13.1495 8.10157 13.0573 8.05927 12.9557C8.01696 12.8542 7.99518 12.7453 7.99518 12.6353C7.99518 12.5252 8.01696 12.4163 8.05927 12.3148C8.10157 12.2132 8.16357 12.1211 8.24168 12.0436L9.32501 10.9686L8.24168 9.89359C8.08476 9.73667 7.9966 9.52384 7.9966 9.30192C7.9966 9.08 8.08476 8.86717 8.24168 8.71025C8.39859 8.55333 8.61142 8.46518 8.83334 8.46518C9.05526 8.46518 9.26809 8.55333 9.42501 8.71025L10.5 9.79359L11.575 8.71025C11.7319 8.55333 11.9448 8.46518 12.1667 8.46518C12.3886 8.46518 12.6014 8.55333 12.7583 8.71025C12.9153 8.86717 13.0034 9.08 13.0034 9.30192C13.0034 9.52384 12.9153 9.73667 12.7583 9.89359L11.675 10.9686L12.7583 12.0436Z" fill="#616161"/>
</svg>
