<svg width="14" height="16" viewBox="0 0 14 16" fill="none" xmlns="http://www.w3.org/2000/svg">
<path d="M11.125 7.33333C10.918 7.33333 10.75 7.18399 10.75 6.99999V3.99999C10.75 2.16199 9.06775 0.666659 7 0.666659C4.93225 0.666659 3.25 2.16199 3.25 3.99999V6.99999C3.25 7.18399 3.082 7.33333 2.875 7.33333C2.668 7.33333 2.5 7.18399 2.5 6.99999V3.99999C2.5 1.79399 4.51825 -7.62939e-06 7 -7.62939e-06C9.48175 -7.62939e-06 11.5 1.79399 11.5 3.99999V6.99999C11.5 7.18399 11.332 7.33333 11.125 7.33333Z" fill="#616161"/>
<path d="M12.25 15.9999H1.75C0.92275 15.9999 0.25 15.4019 0.25 14.6665V7.99987C0.25 7.26454 0.92275 6.66654 1.75 6.66654H12.25C13.0773 6.66654 13.75 7.26454 13.75 7.99987V14.6665C13.75 15.4019 13.0773 15.9999 12.25 15.9999ZM1.75 7.33321C1.336 7.33321 1 7.63254 1 7.99987V14.6665C1 15.0339 1.336 15.3332 1.75 15.3332H12.25C12.664 15.3332 13 15.0339 13 14.6665V7.99987C13 7.63254 12.664 7.33321 12.25 7.33321H1.75Z" fill="#616161"/>
</svg>
