<svg width="16" height="13" viewBox="0 0 16 13" fill="none" xmlns="http://www.w3.org/2000/svg">
<path d="M14.5481 5.62095V3.45789C14.5481 2.35749 13.8485 1.41723 12.8704 1.05777C12.8802 1.00446 12.8852 0.95004 12.8852 0.89502C12.8852 0.40149 12.4834 0 11.9895 0C11.4957 0 11.0939 0.40152 11.0939 0.89502C11.0939 0.9501 11.0989 1.00452 11.1086 1.0578C10.1305 1.41729 9.43098 2.35752 9.43098 3.45792V3.61791H1.24389C0.55803 3.61785 0 4.17525 0 4.86042V11.5865C0 12.2717 0.55803 12.8291 1.24389 12.8291H11.0456C11.7315 12.8291 12.2895 12.2716 12.2895 11.5865V8.27031C12.6633 8.15235 12.9428 7.81971 12.9825 7.41768H14.4594C14.956 7.41768 15.36 7.0137 15.36 6.51714C15.36 6.05049 15.0032 5.66559 14.5481 5.62095ZM11.6939 0.89499C11.6939 0.7323 11.8265 0.59997 11.9895 0.59997C12.1525 0.59997 12.2852 0.73233 12.2852 0.89499C12.2852 0.90285 12.2848 0.91068 12.2842 0.91848C12.1875 0.90735 12.0892 0.90162 11.9895 0.90162C11.8898 0.90162 11.7915 0.90735 11.6948 0.91848C11.6942 0.91071 11.6939 0.90288 11.6939 0.89499ZM10.031 3.45786C10.031 2.37918 10.9096 1.50162 11.9895 1.50162C13.0694 1.50162 13.9481 2.37918 13.9481 3.45786V5.6166H10.031V3.45786ZM9.43095 4.21785V5.62095C8.97582 5.66562 8.61903 6.05049 8.61903 6.51714C8.61903 6.66507 8.65488 6.80475 8.71836 6.92802L6.95913 8.61666C6.73482 8.81688 6.4458 8.9271 6.14478 8.9271C5.84376 8.9271 5.55474 8.81688 5.3304 8.61663L0.87138 4.33656C0.97659 4.26183 1.1052 4.21782 1.24389 4.21782L9.43095 4.21785ZM10.9965 7.41768C11.0362 7.81971 11.3157 8.15238 11.6895 8.27031V11.5865C11.6895 11.6429 11.6822 11.6976 11.6684 11.7497L7.67688 8.75937L9.15501 7.34055C9.26652 7.39011 9.38988 7.41768 9.51957 7.41768H10.9965ZM0.62103 11.7496C0.60732 11.6975 0.6 11.6428 0.6 11.5865V4.90776L4.61049 8.7573L0.62103 11.7496ZM1.24389 12.2291C1.16901 12.2291 1.0971 12.2162 1.0302 12.1927L5.06055 9.16974C5.37321 9.40122 5.75214 9.52704 6.14475 9.52704C6.53634 9.52704 6.91428 9.40185 7.22646 9.17157L11.2591 12.1927C11.1923 12.2162 11.1204 12.229 11.0456 12.229L1.24389 12.2291ZM11.99 7.71627C11.805 7.71627 11.6481 7.58916 11.6041 7.41768H12.3749C12.3309 7.58916 12.175 7.71627 11.99 7.71627ZM14.4594 6.81768H9.51957C9.35385 6.81768 9.219 6.68286 9.219 6.51714C9.219 6.35142 9.35382 6.2166 9.51957 6.2166H14.4594C14.6251 6.2166 14.76 6.35142 14.76 6.51714C14.76 6.68286 14.6252 6.81768 14.4594 6.81768Z" fill="#616161"/>
<path fill-rule="evenodd" clip-rule="evenodd" d="M14.5493 5.63671V3.47717C14.5493 2.37856 13.8509 1.43983 12.8743 1.08095C12.8841 1.02773 12.8891 0.973396 12.8891 0.918466C12.8891 0.425739 12.4879 0.0249023 11.9949 0.0249023C11.9843 0.0249023 11.9737 0.0250877 11.9632 0.0254553C11.7409 0.0399987 11.5191 0.131497 11.3643 0.285554C11.2016 0.447466 11.1007 0.671422 11.1007 0.918466C11.1007 0.973456 11.1057 1.02779 11.1154 1.08098C10.1389 1.43989 9.44051 2.37859 9.44051 3.4772V3.63693L9.44048 4.23589V5.63671C8.98609 5.6813 8.62988 6.06555 8.62988 6.53144C8.62988 6.67913 8.66567 6.81858 8.72905 6.94165C8.87421 7.14635 8.97205 7.23577 9.16499 7.35351C9.27632 7.40299 9.39948 7.43051 9.52896 7.43051H11.0035C11.0431 7.83189 11.3221 8.16402 11.6954 8.28176C11.9304 8.37909 12.0582 8.36798 12.2944 8.28176C12.6676 8.16399 12.9466 7.83189 12.9862 7.43051H14.4608C14.9566 7.43051 15.3599 7.02719 15.3599 6.53144C15.3599 6.06555 15.0037 5.68127 14.5493 5.63671ZM11.9949 0.623896C11.8321 0.623896 11.6997 0.756011 11.6997 0.918436C11.6997 0.926313 11.7 0.934131 11.7006 0.941888C11.7972 0.930776 11.8954 0.925055 11.9949 0.925055C12.0944 0.925055 12.1925 0.930776 12.2891 0.941888C12.2897 0.934101 12.29 0.926283 12.29 0.918436C12.29 0.756041 12.1576 0.623896 11.9949 0.623896ZM11.9949 1.52408C10.9167 1.52408 10.0395 2.40021 10.0395 3.47714V5.63236H13.9502V3.47714C13.9502 2.40021 13.0731 1.52408 11.9949 1.52408ZM11.9944 7.72862H11.9954C12.1801 7.72862 12.3357 7.60171 12.3797 7.43051H11.6101C11.6541 7.60171 11.8097 7.72862 11.9944 7.72862ZM9.52896 6.83149H14.4608C14.6263 6.83149 14.7609 6.69689 14.7609 6.53144C14.7609 6.36599 14.6262 6.23139 14.4608 6.23139H9.52896C9.36348 6.23139 9.22888 6.36599 9.22888 6.53144C9.22888 6.69689 9.36351 6.83149 9.52896 6.83149Z" fill="#F38181"/>
</svg>
