<svg width="28" height="28" viewBox="0 0 28 28" fill="none" xmlns="http://www.w3.org/2000/svg">
<g clip-path="url(#clip0)">
<path d="M22.7558 2.83274L22.7558 2.83285L22.7663 2.83495C22.7852 2.83872 22.8022 2.84892 22.8144 2.86381L23.201 2.54668L22.8144 2.86381C22.8266 2.8787 22.8333 2.89736 22.8333 2.91662V20.416C22.8333 20.4353 22.8266 20.4539 22.8144 20.4688C22.8022 20.4837 22.7852 20.4939 22.7663 20.4977L22.7663 20.4976L22.7558 20.4999L12.2634 22.8315C12.2522 22.8334 12.2408 22.8329 12.2298 22.8301C12.2178 22.8272 12.2067 22.8216 12.1971 22.8138C12.1876 22.8059 12.1799 22.7961 12.1747 22.785C12.1694 22.7738 12.1666 22.7617 12.1666 22.7493V0.583282C12.1666 0.57096 12.1694 0.558791 12.1747 0.54765C12.1799 0.536516 12.1876 0.526687 12.1971 0.518876C12.2067 0.511064 12.2178 0.505465 12.2298 0.50248C12.2408 0.499733 12.2522 0.499265 12.2634 0.501092L22.7558 2.83274ZM9.99996 2.83298V20.4996H5.54163C5.45103 20.4996 5.36347 20.4668 5.29518 20.4073C5.23027 20.3507 5.18693 20.2735 5.17221 20.1889L5.16663 20.1075V3.208C5.16663 3.20799 5.16663 3.20799 5.16663 3.20798C5.16663 3.11737 5.19945 3.02983 5.25901 2.96154C5.31562 2.89663 5.39275 2.85328 5.47734 2.83857L5.55876 2.83298H9.99996ZM15.1666 9.99965C14.7246 9.99965 14.3007 10.1752 13.9881 10.4878C13.6756 10.8004 13.5 11.2243 13.5 11.6663C13.5 12.1083 13.6756 12.5323 13.9881 12.8448C14.3007 13.1574 14.7246 13.333 15.1666 13.333C15.6087 13.333 16.0326 13.1574 16.3451 12.8448C16.6577 12.5323 16.8333 12.1083 16.8333 11.6663C16.8333 11.2243 16.6577 10.8004 16.3451 10.4878C16.0326 10.1752 15.6087 9.99965 15.1666 9.99965Z" stroke="#2E3E4D"/>
</g>
<defs>
<clipPath id="clip0">
<rect width="28" height="28" fill="white"/>
</clipPath>
</defs>
</svg>
