<svg width="16" height="16" viewBox="0 0 16 16" fill="none" xmlns="http://www.w3.org/2000/svg">
<path fill-rule="evenodd" clip-rule="evenodd" d="M12.9434 4.94412C12.7531 5.26414 12.4837 5.53201 12.16 5.72303C14.0809 6.30973 15.5 8.3169 15.5 10.6964C15.5 10.7418 15.4872 10.7863 15.4629 10.8249C15.4386 10.8636 15.4039 10.8948 15.3626 10.9153C15.3099 10.9413 14.0964 11.5346 12.4679 11.7987C12.4892 12.0025 12.4999 12.2072 12.5 12.4121C12.5 12.4575 12.4872 12.502 12.4629 12.5406C12.4387 12.5792 12.4039 12.6105 12.3626 12.631C12.2807 12.6714 10.3593 13.6085 8.10431 13.6369L8.62972 13.1217C10.2121 12.997 11.5702 12.4467 11.9978 12.2573C11.9276 9.76081 10.1612 7.75523 8 7.75523C5.83881 7.75523 4.07244 9.76093 4.00216 12.2573C4.49983 12.4745 5.28334 12.7614 5.80852 12.9032L6.00906 13.4087C4.54 13.1237 3.68269 12.6533 3.6375 12.631C3.59616 12.6105 3.56141 12.5793 3.53713 12.5406C3.51286 12.502 3.5 12.4575 3.5 12.4121C3.50007 12.2072 3.51081 12.0025 3.53216 11.7987C1.90416 11.5349 0.690781 10.9416 0.6375 10.9153C0.596158 10.8949 0.561412 10.8636 0.537135 10.8249C0.512857 10.7863 0.500001 10.7418 0.5 10.6964C0.5 8.3169 1.91909 6.30973 3.84003 5.72303C3.51614 5.53206 3.24654 5.26417 3.05611 4.94409C2.86568 4.62402 2.76057 4.26207 2.75046 3.89166C2.74035 3.52125 2.82559 3.15432 2.99829 2.82472C3.17099 2.49512 3.4256 2.21349 3.73862 2.00582C4.05163 1.79814 4.41296 1.67112 4.78926 1.63647C5.16556 1.60182 5.54469 1.66066 5.89168 1.80756C6.23866 1.95447 6.5423 2.1847 6.77458 2.477C7.00687 2.76931 7.1603 3.11427 7.22072 3.48004C7.72364 3.29794 8.27636 3.29794 8.77928 3.48004C8.83981 3.1144 8.99329 2.7696 9.22557 2.47744C9.45785 2.18529 9.76145 1.95519 10.1083 1.80839C10.4552 1.66159 10.8343 1.60281 11.2104 1.63748C11.5866 1.67215 11.9478 1.79915 12.2607 2.00676C12.5736 2.21437 12.8282 2.4959 13.0009 2.82538C13.1735 3.15485 13.2588 3.52166 13.2487 3.89196C13.2387 4.26225 13.1337 4.6241 12.9434 4.94412ZM11.7587 2.28805C11.522 2.17624 11.2627 2.11811 11 2.11797C10.5563 2.11853 10.1294 2.28412 9.80535 2.5813C9.48135 2.87848 9.28443 3.28512 9.25434 3.71911C9.53636 3.90498 9.77178 4.15103 9.94296 4.43883C10.1141 4.72662 10.2166 5.04868 10.2428 5.38084C10.4797 5.49216 10.7391 5.54975 11.0018 5.54934C11.2646 5.54894 11.5238 5.49054 11.7604 5.37848C11.9969 5.26643 12.2047 5.10359 12.3683 4.90206C12.5319 4.70052 12.6472 4.46546 12.7055 4.2143C12.7637 3.96315 12.7636 3.70235 12.705 3.45126C12.6465 3.20016 12.531 2.96522 12.3672 2.76385C12.2034 2.56248 11.9954 2.39986 11.7587 2.28805ZM8.97225 4.12281C8.68446 3.93428 8.34612 3.83366 8 3.83366C7.53603 3.83417 7.09121 4.01509 6.76314 4.33674C6.43506 4.65838 6.25052 5.09448 6.25 5.54935C6.25 5.88868 6.35264 6.22039 6.54493 6.50253C6.73722 6.78467 7.01053 7.00458 7.3303 7.13443C7.65008 7.26429 8.00194 7.29827 8.34141 7.23207C8.68087 7.16587 8.9927 7.00246 9.23744 6.76252C9.48218 6.52258 9.64885 6.21687 9.71637 5.88406C9.7839 5.55125 9.74924 5.20628 9.61679 4.89278C9.48434 4.57928 9.26003 4.31133 8.97225 4.12281ZM3.74192 2.64101C3.42635 2.96095 3.24996 3.3886 3.25 3.83366C3.25006 4.12375 3.32512 4.4091 3.46818 4.66303C3.61123 4.91697 3.81761 5.13121 4.06803 5.28574C4.31845 5.44027 4.60473 5.53004 4.90014 5.54667C5.19555 5.5633 5.49043 5.50625 5.75725 5.38084C5.78334 5.04865 5.88582 4.72656 6.05701 4.43874C6.22819 4.15092 6.46362 3.90484 6.74566 3.71895C6.71534 3.27489 6.51018 2.85975 6.17349 2.56122C5.83681 2.26268 5.39496 2.10412 4.94125 2.11901C4.48754 2.13389 4.0575 2.32107 3.74192 2.64101ZM1.00219 10.5417C1.83348 10.9033 2.70726 11.1625 3.60356 11.3133C3.9625 9.43222 5.22347 7.93244 6.84003 7.43872C6.34843 7.14762 5.98838 6.68388 5.83309 6.14181C5.56079 6.07401 5.28095 6.03965 5 6.03954C2.83881 6.03954 1.07244 8.04521 1.00219 10.5417ZM9.15997 7.43872C10.7765 7.93244 12.0373 9.4321 12.3964 11.3132C13.2927 11.1624 14.1665 10.9033 14.9978 10.5417C14.9276 8.04521 13.1612 6.03954 11 6.03954C10.7191 6.03965 10.4392 6.074 10.1669 6.14181C10.0116 6.68388 9.65156 7.14761 9.15997 7.43872Z" fill="#616161"/>
<g clip-path="url(#clip0)">
<mask id="path-2-inside-1" fill="white">
<path fill-rule="evenodd" clip-rule="evenodd" d="M5.58418 13.7058L5.44521 14.2733C5.43736 14.3054 5.43829 14.3388 5.44792 14.3704C5.45755 14.4021 5.47555 14.4309 5.50024 14.4542C5.52493 14.4774 5.5555 14.4944 5.58907 14.5035C5.62263 14.5125 5.65809 14.5134 5.69212 14.506L7.58467 14.0944C7.58631 14.0941 7.58786 14.0935 7.58948 14.0931C7.59354 14.0921 7.59761 14.0911 7.60165 14.0899C7.60422 14.0891 7.6068 14.0882 7.60937 14.0873C7.61305 14.086 7.61668 14.0846 7.62028 14.0832C7.62314 14.082 7.62592 14.0808 7.6287 14.0795C7.63148 14.0782 7.63495 14.0765 7.63802 14.0749C7.64108 14.0733 7.64409 14.0716 7.64707 14.0699C7.65006 14.0682 7.65222 14.0668 7.65479 14.065C7.65802 14.0629 7.66117 14.0608 7.66424 14.0585C7.66643 14.0569 7.66859 14.0553 7.67072 14.0536C7.67394 14.0511 7.67703 14.0484 7.68004 14.0457C7.68128 14.0446 7.68261 14.0436 7.68382 14.0425L11.1779 10.7497L11.3234 10.6125C11.5541 10.3939 11.6833 10.0981 11.6829 9.78991C11.6824 9.48169 11.5523 9.18621 11.3211 8.96826C11.0898 8.75031 10.7763 8.62768 10.4493 8.62726C10.1223 8.62684 9.80838 8.74865 9.5765 8.966L9.43099 9.10311L8.94086 9.56504L8.63412 9.85415L5.93707 12.396C5.93588 12.3971 5.93485 12.3984 5.9337 12.3995C5.93086 12.4023 5.92806 12.4052 5.92538 12.4082C5.92374 12.41 5.92217 12.4119 5.9206 12.4138C5.91802 12.4169 5.91545 12.42 5.91316 12.4233C5.91169 12.4253 5.9103 12.4273 5.90891 12.4294C5.90675 12.4326 5.90464 12.4359 5.90266 12.4393C5.90129 12.4416 5.90009 12.444 5.89877 12.4463C5.89707 12.4495 5.8954 12.4528 5.89388 12.456C5.8926 12.4588 5.89146 12.4617 5.89033 12.4645L5.89004 12.4652C5.88898 12.4679 5.88782 12.4708 5.88686 12.4736C5.8858 12.4767 5.88477 12.4803 5.88382 12.4837C5.88325 12.4856 5.88253 12.4875 5.88204 12.4895L5.6819 13.3069L5.58418 13.7058ZM6.19967 12.9182L5.92054 14.0581L7.1301 13.795L6.19967 12.9182ZM10.1349 9.07102C10.0348 9.11039 9.94401 9.16799 9.86764 9.24051L11.0323 10.3382C11.1092 10.2662 11.1703 10.1806 11.2121 10.0863C11.2539 9.99203 11.2755 9.8909 11.2757 9.78872C11.2759 9.68655 11.2547 9.58534 11.2133 9.4909C11.172 9.39647 11.1112 9.31066 11.0345 9.23841C10.9579 9.16616 10.8668 9.10889 10.7666 9.06988C10.6664 9.03087 10.559 9.01089 10.4506 9.01108C10.3422 9.01128 10.2349 9.03164 10.1349 9.07102ZM10.7411 10.6125L9.57648 9.51483L6.37367 12.5333L7.53834 13.631L10.7411 10.6125Z"/>
</mask>
<path fill-rule="evenodd" clip-rule="evenodd" d="M5.58418 13.7058L5.44521 14.2733C5.43736 14.3054 5.43829 14.3388 5.44792 14.3704C5.45755 14.4021 5.47555 14.4309 5.50024 14.4542C5.52493 14.4774 5.5555 14.4944 5.58907 14.5035C5.62263 14.5125 5.65809 14.5134 5.69212 14.506L7.58467 14.0944C7.58631 14.0941 7.58786 14.0935 7.58948 14.0931C7.59354 14.0921 7.59761 14.0911 7.60165 14.0899C7.60422 14.0891 7.6068 14.0882 7.60937 14.0873C7.61305 14.086 7.61668 14.0846 7.62028 14.0832C7.62314 14.082 7.62592 14.0808 7.6287 14.0795C7.63148 14.0782 7.63495 14.0765 7.63802 14.0749C7.64108 14.0733 7.64409 14.0716 7.64707 14.0699C7.65006 14.0682 7.65222 14.0668 7.65479 14.065C7.65802 14.0629 7.66117 14.0608 7.66424 14.0585C7.66643 14.0569 7.66859 14.0553 7.67072 14.0536C7.67394 14.0511 7.67703 14.0484 7.68004 14.0457C7.68128 14.0446 7.68261 14.0436 7.68382 14.0425L11.1779 10.7497L11.3234 10.6125C11.5541 10.3939 11.6833 10.0981 11.6829 9.78991C11.6824 9.48169 11.5523 9.18621 11.3211 8.96826C11.0898 8.75031 10.7763 8.62768 10.4493 8.62726C10.1223 8.62684 9.80838 8.74865 9.5765 8.966L9.43099 9.10311L8.94086 9.56504L8.63412 9.85415L5.93707 12.396C5.93588 12.3971 5.93485 12.3984 5.9337 12.3995C5.93086 12.4023 5.92806 12.4052 5.92538 12.4082C5.92374 12.41 5.92217 12.4119 5.9206 12.4138C5.91802 12.4169 5.91545 12.42 5.91316 12.4233C5.91169 12.4253 5.9103 12.4273 5.90891 12.4294C5.90675 12.4326 5.90464 12.4359 5.90266 12.4393C5.90129 12.4416 5.90009 12.444 5.89877 12.4463C5.89707 12.4495 5.8954 12.4528 5.89388 12.456C5.8926 12.4588 5.89146 12.4617 5.89033 12.4645L5.89004 12.4652C5.88898 12.4679 5.88782 12.4708 5.88686 12.4736C5.8858 12.4767 5.88477 12.4803 5.88382 12.4837C5.88325 12.4856 5.88253 12.4875 5.88204 12.4895L5.6819 13.3069L5.58418 13.7058ZM6.19967 12.9182L5.92054 14.0581L7.1301 13.795L6.19967 12.9182ZM10.1349 9.07102C10.0348 9.11039 9.94401 9.16799 9.86764 9.24051L11.0323 10.3382C11.1092 10.2662 11.1703 10.1806 11.2121 10.0863C11.2539 9.99203 11.2755 9.8909 11.2757 9.78872C11.2759 9.68655 11.2547 9.58534 11.2133 9.4909C11.172 9.39647 11.1112 9.31066 11.0345 9.23841C10.9579 9.16616 10.8668 9.10889 10.7666 9.06988C10.6664 9.03087 10.559 9.01089 10.4506 9.01108C10.3422 9.01128 10.2349 9.03164 10.1349 9.07102ZM10.7411 10.6125L9.57648 9.51483L6.37367 12.5333L7.53834 13.631L10.7411 10.6125Z" fill="#616161"/>
<path d="M5.42599 12.279L5.4257 12.2798L6.35438 12.6507L6.35467 12.6499L5.42599 12.279ZM5.58418 13.7058L4.61291 13.4678L4.61288 13.4679L5.58418 13.7058ZM5.44521 14.2733L4.47391 14.0355L4.47391 14.0355L5.44521 14.2733ZM5.69212 14.506L5.90464 15.4832L5.90465 15.4832L5.69212 14.506ZM7.58467 14.0944L7.38274 13.1149L7.37214 13.1172L7.58467 14.0944ZM7.58948 14.0931L7.3574 13.1204L7.3567 13.1206L7.58948 14.0931ZM7.60165 14.0899L7.88914 15.0477L7.89863 15.0447L7.60165 14.0899ZM7.60937 14.0873L7.28516 13.1413L7.28011 13.143L7.60937 14.0873ZM7.62028 14.0832L7.9948 15.0104L7.99769 15.0092L7.62028 14.0832ZM7.65479 14.065L7.1088 13.2273L7.101 13.2323L7.09329 13.2376L7.65479 14.065ZM7.66424 14.0585L7.07368 13.2515L7.0709 13.2536L7.66424 14.0585ZM7.67072 14.0536L8.2762 14.8495L8.28571 14.8423L8.29504 14.8348L7.67072 14.0536ZM7.68004 14.0457L8.3499 14.7882L8.35031 14.7878L7.68004 14.0457ZM7.68382 14.0425L6.99798 13.3147L6.99796 13.3148L7.68382 14.0425ZM11.1779 10.7497L11.8637 11.4774L11.8637 11.4774L11.1779 10.7497ZM11.3234 10.6125L12.0093 11.3402L12.0113 11.3383L11.3234 10.6125ZM9.5765 8.966L8.89263 8.2364L8.8907 8.23821L9.5765 8.966ZM9.43099 9.10311L8.7452 8.37532L8.74514 8.37538L9.43099 9.10311ZM8.94086 9.56504L8.25501 8.8373L8.25497 8.83733L8.94086 9.56504ZM5.92054 14.0581L4.94924 13.8203L4.56841 15.3756L6.13308 15.0353L5.92054 14.0581ZM6.19967 12.9182L6.88552 12.1904L5.63654 11.0133L5.22836 12.6803L6.19967 12.9182ZM7.1301 13.795L7.34264 14.7722L9.19701 14.3688L7.81595 13.0673L7.1301 13.795ZM9.86764 9.24051L9.17901 8.51541L8.41258 9.24329L9.18178 9.96824L9.86764 9.24051ZM11.0323 10.3382L10.3464 11.0659L11.0296 11.7098L11.7153 11.0685L11.0323 10.3382ZM9.57648 9.51483L10.2623 8.78711L9.57649 8.1407L8.89062 8.7871L9.57648 9.51483ZM10.7411 10.6125L11.427 11.3402L12.1991 10.6125L11.427 9.88474L10.7411 10.6125ZM7.53834 13.631L6.85249 14.3587L7.53835 15.0051L8.22421 14.3587L7.53834 13.631ZM6.37367 12.5333L5.68781 11.8056L4.91563 12.5333L5.68781 13.2611L6.37367 12.5333ZM8.63412 9.85415L9.31999 10.5819L9.32001 10.5819L8.63412 9.85415ZM5.93707 12.396L6.62293 13.1238H6.62293L5.93707 12.396ZM5.9337 12.3995L5.25603 11.6641L5.24215 11.6769L5.22877 11.6902L5.9337 12.3995ZM5.92538 12.4082L5.18103 11.7404L5.17969 11.7419L5.92538 12.4082ZM5.9206 12.4138L6.68804 13.055L6.69413 13.0476L5.9206 12.4138ZM5.91316 12.4233L6.72136 13.0122L6.72601 13.0058L6.73057 12.9993L5.91316 12.4233ZM5.90891 12.4294L5.07969 11.8704L5.07627 11.8756L5.90891 12.4294ZM5.90266 12.4393L6.76321 12.9487L6.76635 12.9433L5.90266 12.4393ZM5.89877 12.4463L5.02548 11.9591L5.02034 11.9684L5.01539 11.9777L5.89877 12.4463ZM5.89388 12.456L4.98668 12.0353L4.98585 12.0371L5.89388 12.456ZM5.89033 12.4645L6.81901 12.8354L6.81912 12.8351L5.89033 12.4645ZM5.88686 12.4736L4.94005 12.1518L4.94005 12.1518L5.88686 12.4736ZM5.88382 12.4837L6.84473 12.7606L6.84617 12.7555L5.88382 12.4837ZM5.88204 12.4895L6.85335 12.7274L6.85379 12.7256L5.88204 12.4895ZM5.6819 13.3069L6.65318 13.5449L6.65321 13.5448L5.6819 13.3069ZM5.89004 12.4652L6.81865 12.8363L6.81871 12.8361L5.89004 12.4652ZM4.61288 13.4679L4.47391 14.0355L6.41652 14.5112L6.55549 13.9436L4.61288 13.4679ZM4.47391 14.0355C4.42327 14.2423 4.42942 14.4584 4.49123 14.6616L6.4046 14.0793C6.44717 14.2192 6.45145 14.3685 6.41652 14.5112L4.47391 14.0355ZM4.49123 14.6616C4.55293 14.8643 4.66638 15.0424 4.81438 15.1819L6.1861 13.7264C6.28472 13.8194 6.36216 13.9398 6.4046 14.0793L4.49123 14.6616ZM4.81438 15.1819C4.96205 15.3211 5.13964 15.4179 5.32813 15.4688L5.85 13.5381C5.97136 13.5709 6.08782 13.6338 6.1861 13.7264L4.81438 15.1819ZM5.32813 15.4688C5.51652 15.5197 5.71436 15.5246 5.90464 15.4832L5.4796 13.5289C5.60183 13.5023 5.72874 13.5053 5.85 13.5381L5.32813 15.4688ZM5.90465 15.4832L7.79719 15.0716L7.37214 13.1172L5.47959 13.5289L5.90465 15.4832ZM7.78658 15.0738C7.80952 15.0691 7.82837 15.0644 7.8413 15.0609C7.8537 15.0577 7.86344 15.0548 7.86562 15.0542C7.8663 15.054 7.86688 15.0538 7.86691 15.0538C7.86711 15.0538 7.86673 15.0539 7.86628 15.054C7.86538 15.0543 7.86273 15.055 7.85927 15.056C7.85249 15.0579 7.83921 15.0616 7.82226 15.0656L7.3567 13.1206C7.33894 13.1248 7.32485 13.1287 7.31728 13.1308C7.31342 13.1319 7.31037 13.1328 7.30907 13.1332C7.30843 13.1334 7.30785 13.1335 7.30785 13.1335C7.30768 13.1336 7.30807 13.1335 7.30854 13.1333C7.30993 13.1329 7.31888 13.1303 7.33047 13.1273C7.3426 13.1241 7.36064 13.1196 7.38275 13.115L7.78658 15.0738ZM7.82156 15.0658C7.84016 15.0614 7.86315 15.0554 7.88913 15.0476L7.31417 13.1321C7.33207 13.1267 7.34693 13.1229 7.3574 13.1204L7.82156 15.0658ZM7.89863 15.0447C7.91059 15.041 7.92042 15.0377 7.92679 15.0356C7.93274 15.0336 7.938 15.0317 7.93864 15.0315L7.28011 13.143C7.27817 13.1437 7.28086 13.1428 7.28424 13.1416C7.28803 13.1403 7.29529 13.1379 7.30467 13.135L7.89863 15.0447ZM7.93357 15.0333C7.95493 15.0259 7.97533 15.0183 7.9948 15.0104L7.24577 13.156C7.25803 13.151 7.27118 13.1461 7.28517 13.1413L7.93357 15.0333ZM7.99769 15.0092C8.02146 14.9995 8.04166 14.9903 8.04192 14.9901L7.21548 13.1689C7.21349 13.1698 7.21654 13.1684 7.22042 13.1667C7.22479 13.1647 7.2327 13.1613 7.24287 13.1571L7.99769 15.0092ZM8.04192 14.9901C8.06317 14.9805 8.08335 14.9705 8.10126 14.9612L7.17477 13.1887C7.18173 13.1851 7.18802 13.1819 7.19366 13.1792C7.19913 13.1765 7.20648 13.173 7.21548 13.1689L8.04192 14.9901ZM8.10126 14.9612C8.12271 14.95 8.14027 14.9399 8.152 14.9331L7.14215 13.2067C7.1479 13.2034 7.15945 13.1967 7.17477 13.1887L8.10126 14.9612ZM8.152 14.9331C8.17199 14.9214 8.19324 14.9082 8.2163 14.8925L7.09329 13.2376C7.1005 13.2327 7.10923 13.2269 7.11918 13.2207C7.12884 13.2146 7.13685 13.2098 7.14215 13.2067L8.152 14.9331ZM8.20078 14.9028C8.22008 14.8903 8.23902 14.8771 8.25758 14.8634L7.0709 13.2536C7.08332 13.2444 7.09597 13.2356 7.1088 13.2273L8.20078 14.9028ZM8.25479 14.8655C8.2636 14.8591 8.27102 14.8535 8.2762 14.8495L7.06525 13.2578C7.06616 13.2571 7.06925 13.2547 7.07368 13.2515L8.25479 14.8655ZM8.29504 14.8348C8.31779 14.8166 8.33642 14.8003 8.3499 14.7882L7.01018 13.3032C7.01764 13.2965 7.0301 13.2855 7.04641 13.2725L8.29504 14.8348ZM8.35031 14.7878C8.33643 14.8003 8.32502 14.8099 8.31872 14.8151C8.31551 14.8178 8.31298 14.8199 8.31184 14.8208C8.31134 14.8212 8.30961 14.8226 8.31122 14.8213C8.31213 14.8205 8.31963 14.8145 8.32879 14.8067C8.33845 14.7986 8.35285 14.7861 8.36968 14.7702L6.99796 13.3148C7.01419 13.2995 7.02797 13.2875 7.037 13.2799C7.04158 13.276 7.04538 13.2729 7.04793 13.2708C7.05039 13.2688 7.05229 13.2672 7.05266 13.2669C7.05271 13.2669 7.05314 13.2665 7.05267 13.2669C7.05244 13.2671 7.05184 13.2676 7.05109 13.2682C7.04962 13.2694 7.04678 13.2717 7.04325 13.2746C7.03631 13.2804 7.02427 13.2905 7.00977 13.3036L8.35031 14.7878ZM8.36967 14.7702L11.8637 11.4774L10.492 10.0219L6.99798 13.3147L8.36967 14.7702ZM11.8637 11.4774L12.0093 11.3402L10.6376 9.88473L10.492 10.0219L11.8637 11.4774ZM12.0113 11.3383C12.4346 10.9372 12.6837 10.3812 12.6829 9.78848L10.6829 9.79133C10.6829 9.81508 10.6735 9.85066 10.6356 9.88659L12.0113 11.3383ZM12.6829 9.78848C12.682 9.1958 12.4313 8.6405 12.007 8.24054L10.6352 9.69598C10.6733 9.73192 10.6829 9.76757 10.6829 9.79133L12.6829 9.78848ZM12.007 8.24054C11.5846 7.84245 11.0239 7.628 10.4506 7.62726L10.448 9.62726C10.5287 9.62736 10.5951 9.65817 10.6352 9.69598L12.007 8.24054ZM10.4506 7.62726C9.87726 7.62652 9.31606 7.83951 8.89263 8.2364L10.2604 9.6956C10.3007 9.6578 10.3673 9.62715 10.448 9.62726L10.4506 7.62726ZM8.8907 8.23821L8.7452 8.37532L10.1168 9.8309L10.2623 9.69379L8.8907 8.23821ZM8.74514 8.37538L8.25501 8.8373L9.62672 10.2928L10.1169 9.83085L8.74514 8.37538ZM6.89185 14.2959L7.17098 13.156L5.22836 12.6803L4.94924 13.8203L6.89185 14.2959ZM5.51382 13.6459L6.44425 14.5228L7.81595 13.0673L6.88552 12.1904L5.51382 13.6459ZM6.91757 12.8179L5.70801 13.081L6.13308 15.0353L7.34264 14.7722L6.91757 12.8179ZM10.5563 9.96562C10.5374 9.98354 10.5182 9.99482 10.5011 10.0015L9.76865 8.14048C9.55147 8.22595 9.3506 8.35244 9.17901 8.51541L10.5563 9.96562ZM10.5011 10.0015C10.484 10.0082 10.4677 10.0111 10.4524 10.0111L10.4488 8.01108C10.2167 8.0115 9.98576 8.05504 9.76865 8.14048L10.5011 10.0015ZM10.4524 10.0111C10.4372 10.0111 10.4208 10.0084 10.4038 10.0017L11.1294 8.13801C10.912 8.05337 10.6809 8.01067 10.4488 8.01108L10.4524 10.0111ZM10.4038 10.0017C10.3868 9.9951 10.3675 9.98392 10.3487 9.96614L11.7204 8.51069C11.5482 8.3484 11.3469 8.22268 11.1294 8.13801L10.4038 10.0017ZM10.3487 9.96614C10.3297 9.94824 10.3112 9.92372 10.2975 9.89233L12.1292 9.08947C12.0327 8.86921 11.8927 8.67309 11.7204 8.51069L10.3487 9.96614ZM10.2975 9.89233C10.2836 9.86077 10.2756 9.82467 10.2757 9.78667L12.2757 9.79077C12.2762 9.54842 12.2258 9.30991 12.1292 9.08947L10.2975 9.89233ZM10.2757 9.78667C10.2758 9.74867 10.2839 9.71264 10.2979 9.6812L12.1264 10.4914C12.2239 10.2714 12.2752 10.0331 12.2757 9.79077L10.2757 9.78667ZM10.2979 9.6812C10.3117 9.64993 10.3302 9.62556 10.3492 9.60779L11.7153 11.0685C11.8882 10.9068 12.029 10.7113 12.1264 10.4914L10.2979 9.6812ZM11.7181 9.61042L10.5535 8.51279L9.18178 9.96824L10.3464 11.0659L11.7181 9.61042ZM8.89061 10.2426L10.0552 11.3402L11.427 9.88474L10.2623 8.78711L8.89061 10.2426ZM10.0552 9.88474L6.85248 12.9032L8.22421 14.3587L11.427 11.3402L10.0552 9.88474ZM8.22419 12.9032L7.05952 11.8056L5.68781 13.2611L6.85249 14.3587L8.22419 12.9032ZM7.05952 13.2611L10.2623 10.2426L8.89062 8.7871L5.68781 11.8056L7.05952 13.2611ZM7.94826 9.12642L5.25121 11.6683L6.62293 13.1238L9.31999 10.5819L7.94826 9.12642ZM5.25121 11.6683C5.23297 11.6855 5.21891 11.7 5.21071 11.7087C5.20649 11.7131 5.20313 11.7167 5.20115 11.7189C5.19943 11.7207 5.19775 11.7226 5.1982 11.7221C5.1982 11.7221 5.19862 11.7216 5.19917 11.721C5.19974 11.7204 5.20066 11.7194 5.20179 11.7182C5.20401 11.7158 5.20764 11.7119 5.2122 11.7071C5.22104 11.6979 5.23621 11.6824 5.25603 11.6641L6.61136 13.1349C6.63176 13.1161 6.64749 13.1 6.65688 13.0902C6.66172 13.0852 6.66563 13.081 6.66812 13.0783C6.67048 13.0757 6.6724 13.0737 6.67255 13.0735C6.67327 13.0727 6.67187 13.0742 6.67042 13.0758C6.66872 13.0776 6.66563 13.081 6.6617 13.0851C6.65406 13.0932 6.64057 13.1071 6.62293 13.1238L5.25121 11.6683ZM5.22877 11.6902C5.22072 11.6982 5.20242 11.7165 5.18103 11.7404L6.66973 13.076C6.6537 13.0938 6.64101 13.1064 6.63862 13.1088L5.22877 11.6902ZM5.17969 11.7419C5.16293 11.7606 5.15003 11.7765 5.14706 11.7801L6.69413 13.0476C6.69388 13.0479 6.6913 13.051 6.68772 13.0553C6.68399 13.0597 6.67828 13.0664 6.67108 13.0745L5.17969 11.7419ZM5.15318 11.7727C5.15043 11.776 5.1241 11.807 5.09575 11.8472L6.73057 12.9993C6.71749 13.0179 6.70634 13.0323 6.69948 13.0409C6.69594 13.0453 6.69305 13.0489 6.69119 13.0511C6.68938 13.0533 6.6881 13.0549 6.68801 13.055L5.15318 11.7727ZM5.10496 11.8344C5.09225 11.8518 5.08249 11.8663 5.07971 11.8704L6.73811 12.9883C6.7379 12.9887 6.73603 12.9914 6.7334 12.9952C6.73068 12.9992 6.72655 13.0051 6.72136 13.0122L5.10496 11.8344ZM5.07627 11.8756C5.07095 11.8836 5.05594 11.9062 5.03897 11.9353L6.76635 12.9433C6.75334 12.9656 6.74255 12.9817 6.74155 12.9832L5.07627 11.8756ZM5.04213 11.9299C5.03646 11.9395 5.03181 11.9477 5.02843 11.9537C5.02513 11.9596 5.02252 11.9644 5.02132 11.9667C5.02071 11.9678 5.02018 11.9688 5.02008 11.969C5.01986 11.9694 5.02007 11.969 5.02035 11.9685C5.02092 11.9674 5.02286 11.9638 5.02548 11.9591L6.77207 12.9335C6.77535 12.9276 6.77792 12.9229 6.77913 12.9207C6.77973 12.9196 6.78027 12.9186 6.78036 12.9184C6.78058 12.918 6.78036 12.9184 6.78008 12.9189C6.77951 12.92 6.77754 12.9236 6.77489 12.9283C6.77216 12.9332 6.76818 12.9403 6.76319 12.9487L5.04213 11.9299ZM5.01539 11.9777C5.01173 11.9846 4.99984 12.007 4.98668 12.0353L6.80109 12.8767C6.79568 12.8884 6.79104 12.8977 6.78793 12.9038C6.78488 12.9098 6.78259 12.9142 6.78215 12.915L5.01539 11.9777ZM4.98585 12.0371C4.97805 12.054 4.97205 12.0682 4.96823 12.0774C4.9647 12.0859 4.96171 12.0935 4.96154 12.0939L6.81912 12.8351C6.82009 12.8327 6.81823 12.8374 6.81586 12.8431C6.81322 12.8495 6.80843 12.8608 6.80192 12.8749L4.98585 12.0371ZM4.94005 12.1518C4.92939 12.1832 4.92179 12.2107 4.92147 12.2119L6.84617 12.7555C6.84644 12.7545 6.84534 12.7585 6.84372 12.7639C6.84216 12.7692 6.83869 12.7806 6.83367 12.7954L4.94005 12.1518ZM4.92293 12.2068C4.92645 12.1945 4.92944 12.1851 4.9307 12.1812C4.93104 12.1801 4.93132 12.1792 4.9315 12.1787C4.93167 12.1781 4.9318 12.1777 4.93181 12.1777C4.93197 12.1772 4.93141 12.1789 4.93091 12.1805C4.92982 12.1839 4.92689 12.193 4.92344 12.2047C4.9199 12.2167 4.91519 12.2334 4.9103 12.2535L6.85379 12.7256C6.84915 12.7447 6.84471 12.7604 6.84145 12.7714C6.8383 12.7821 6.83567 12.7903 6.8349 12.7927C6.83455 12.7938 6.83415 12.795 6.83447 12.794C6.8346 12.7936 6.83526 12.7916 6.83605 12.7891C6.83761 12.7842 6.8409 12.7738 6.84471 12.7606L4.92293 12.2068ZM4.91074 12.2517L4.7106 13.0691L6.65321 13.5448L6.85335 12.7274L4.91074 12.2517ZM6.55546 13.9437L6.65318 13.5449L4.71063 13.069L4.61291 13.4678L6.55546 13.9437ZM9.32001 10.5819L9.62675 10.2927L8.25497 8.83733L7.94824 9.12645L9.32001 10.5819ZM4.96166 12.0936L4.96136 12.0943L6.81871 12.8361L6.81901 12.8354L4.96166 12.0936ZM4.96143 12.0942C4.96125 12.0946 4.9583 12.102 4.95505 12.1104C4.95166 12.1192 4.94617 12.1338 4.94005 12.1518L6.83366 12.7954C6.82851 12.8106 6.82408 12.8223 6.82177 12.8283C6.81961 12.8339 6.81777 12.8385 6.81865 12.8363L4.96143 12.0942Z" fill="#F38181" mask="url(#path-2-inside-1)"/>
</g>
<defs>
<clipPath id="clip0">
<rect width="6.58824" height="5.96079" fill="white" transform="translate(5.33325 8.62726)"/>
</clipPath>
</defs>
</svg>
