<svg width="93" height="100" viewBox="0 0 93 100" fill="none" xmlns="http://www.w3.org/2000/svg">
<g filter="url(#filter0_d)">
<path d="M46.0859 95.6052C37.7661 95.6052 30.959 88.7981 30.959 80.4783H61.2129C61.2129 88.7981 54.4057 95.6052 46.0859 95.6052Z" fill="#FCE38A"/>
</g>
<path d="M49.9193 38.7301V27.0001H42.2526V38.7301C25.0026 40.6467 11.5859 55.2517 11.5859 72.9617C11.5859 77.2167 15.0359 80.6667 19.2909 80.6667H30.7526C30.7526 89.1384 37.6143 96.0001 46.0859 96.0001C54.5576 96.0001 61.4193 89.1384 61.4193 80.6667H72.8809C77.1359 80.6667 80.5859 77.2167 80.5859 72.9617C80.5859 55.2517 67.1693 40.6467 49.9193 38.7301ZM46.0859 88.3334C41.8693 88.3334 38.4193 84.8834 38.4193 80.6667H53.7526C53.7526 84.8834 50.3026 88.3334 46.0859 88.3334ZM46.0859 73.0001H19.2526C19.2526 58.2034 31.2893 46.1667 46.0859 46.1667C60.8826 46.1667 72.9193 58.2034 72.9193 73.0001H46.0859Z" fill="#EEEEEE"/>
<path d="M42.2526 27.0001H49.9193V0H42.2526V27.0001Z" fill="#EEEEEE"/>
<defs>
<filter id="filter0_d" x="7.95898" y="57.4783" width="76.2539" height="61.127" filterUnits="userSpaceOnUse" color-interpolation-filters="sRGB">
<feFlood flood-opacity="0" result="BackgroundImageFix"/>
<feColorMatrix in="SourceAlpha" type="matrix" values="0 0 0 0 0 0 0 0 0 0 0 0 0 0 0 0 0 0 127 0"/>
<feOffset/>
<feGaussianBlur stdDeviation="11.5"/>
<feColorMatrix type="matrix" values="0 0 0 0 0.988235 0 0 0 0 0.890196 0 0 0 0 0.541176 0 0 0 1 0"/>
<feBlend mode="normal" in2="BackgroundImageFix" result="effect1_dropShadow"/>
<feBlend mode="normal" in="SourceGraphic" in2="effect1_dropShadow" result="shape"/>
</filter>
</defs>
</svg>
