<svg width="76" height="77" viewBox="0 0 76 77" fill="none" xmlns="http://www.w3.org/2000/svg">
<path d="M36.9894 22.0679C42.7089 19.9129 47.6483 18.0518 51.7826 19.8235C52.0712 19.9427 52.3951 19.9435 52.6843 19.8256C52.9734 19.7077 53.2045 19.4806 53.3274 19.1936C53.4504 18.9065 53.4554 18.5826 53.3413 18.292C53.2271 18.0013 53.0031 17.7673 52.7177 17.6406C47.8279 15.5448 42.3678 17.5057 36.5879 19.6812C38.5972 16.2028 39.1465 12.0099 39.1783 11.7546C39.2011 11.5711 39.1808 11.3849 39.119 11.2107C39.0572 11.0364 38.9555 10.8791 38.8221 10.7511C38.6888 10.6231 38.5273 10.528 38.3507 10.4733C38.1741 10.4187 37.9872 10.4061 37.8048 10.4365L32.2186 11.3675C32.2461 9.18752 31.4203 7.20826 29.785 5.57277C28.8562 4.64987 27.7649 3.90653 26.566 3.3802C26.4012 3.31429 26.2237 3.28616 26.0466 3.29788C25.8695 3.3096 25.6973 3.36087 25.5426 3.44792C25.3879 3.53497 25.2547 3.65559 25.1528 3.8009C25.0509 3.94621 24.9828 4.11252 24.9537 4.2876C24.9437 4.34846 23.83 10.4196 20.1878 10.4196C16.7034 10.4196 11.8974 6.38428 10.34 4.82984C10.1563 4.64613 9.91752 4.5277 9.66012 4.49271C9.40272 4.45772 9.14095 4.5081 8.91492 4.63612C8.68889 4.76415 8.51108 4.96275 8.40872 5.20151C8.30637 5.44026 8.28514 5.70599 8.34826 5.95797L10.7166 15.4311C9.27228 14.8141 7.9134 14.0138 6.67344 13.0499C6.47281 12.8916 6.22645 12.8022 5.97098 12.7951C5.7155 12.7879 5.46455 12.8634 5.2554 13.0103C5.04625 13.1572 4.89007 13.3676 4.81006 13.6104C4.73005 13.8531 4.73048 14.1151 4.81129 14.3576C4.85078 14.4764 5.80775 17.2931 8.3159 20.1148C10.6444 22.7344 14.8002 25.8571 21.3753 25.8571C26.9329 25.8571 32.2756 23.8439 36.9894 22.0679ZM20.1878 12.7946C22.6101 12.7946 24.6198 11.3357 25.9999 8.57566C26.3673 7.8311 26.6714 7.05688 26.9087 6.26123C28.3278 7.2142 30.3801 9.21513 29.7108 12.5617C29.6731 12.7502 29.6817 12.945 29.736 13.1295C29.7902 13.3139 29.8884 13.4825 30.0221 13.6206C30.1559 13.7587 30.3211 13.8623 30.5038 13.9224C30.6864 13.9826 30.8808 13.9975 31.0705 13.9659L36.5376 13.0548C35.9818 15.5656 34.6878 19.3727 32.3384 21.0725C30.6975 19.4863 27.9854 16.5258 27.2767 13.6941C27.2237 13.4814 27.1128 13.2876 26.9564 13.1341C26.7999 12.9806 26.6041 12.8733 26.3905 12.8242C26.1769 12.7752 25.9539 12.7861 25.7461 12.856C25.5384 12.9258 25.354 13.0518 25.2134 13.22L25.1152 13.3374C23.6629 15.0741 22.2888 16.7167 20.003 17.5391C17.7674 17.4264 15.5534 17.047 13.4079 16.4089L11.5576 9.00287C13.8589 10.7587 17.1763 12.7946 20.1878 12.7946ZM10.1509 18.604C9.78005 18.1906 9.43042 17.7588 9.10336 17.31C14.4404 19.8394 19.8939 19.9173 20.1786 19.9196C20.3089 19.9201 20.4385 19.8997 20.5623 19.859C22.8631 19.0941 24.3939 17.7478 25.7131 16.2885C26.7566 18.4828 28.4604 20.5189 29.9369 22.033C27.1471 22.8807 24.2962 23.4818 21.3756 23.4818C16.8371 23.4821 13.0607 21.8408 10.1509 18.604Z" fill="#95E1D3"/>
<path d="M72.2416 51.4471C72.3497 51.283 72.4155 51.0947 72.4329 50.899C72.4504 50.7032 72.419 50.5062 72.3416 50.3256C70.7475 46.6061 67.5742 43.8631 63.1647 42.3934C62.0603 42.0277 60.9286 41.7497 59.7804 41.5622C62.8038 38.7533 68.4466 33.2322 71.0811 28.8411C71.2431 28.571 71.2912 28.2477 71.2148 27.9421C71.1385 27.6366 70.9438 27.3739 70.6738 27.2118C70.4037 27.0498 70.0803 27.0017 69.7748 27.0781C69.4692 27.1545 69.2065 27.3491 69.0445 27.6192C66.5312 31.8082 60.8488 37.327 57.9657 40.0005C57.7787 38.7494 57.485 37.5165 57.0877 36.3155C55.6182 31.906 52.8751 28.7327 49.1555 27.1387C48.9748 27.0612 48.7776 27.0298 48.5818 27.0473C48.3859 27.0649 48.1975 27.1307 48.0334 27.2391C47.8693 27.3474 47.7347 27.4948 47.6416 27.668C47.5485 27.8412 47.4999 28.0348 47.5001 28.2315V32.7003C44.4797 32.1214 37.4301 31.1281 31.6871 33.0425C31.5184 33.0987 31.3645 33.1921 31.2367 33.3158C31.109 33.4395 31.0106 33.5902 30.9489 33.757C30.8872 33.9238 30.8638 34.1023 30.8803 34.2793C30.8968 34.4564 30.9529 34.6274 31.0444 34.7799L34.0072 39.7174L25.4958 45.037C25.3275 45.1421 25.1882 45.2878 25.0907 45.4606C24.9932 45.6334 24.9406 45.8279 24.9376 46.0264C24.9347 46.2248 24.9815 46.4208 25.0738 46.5965C25.1661 46.7721 25.301 46.9218 25.4661 47.032L32.016 51.3987L30.8783 67.3343C30.8661 67.5041 30.8907 67.6745 30.9502 67.8339C31.0096 67.9934 31.1027 68.1382 31.2231 68.2585C31.3434 68.3789 31.4882 68.4719 31.6477 68.5314C31.8071 68.5909 31.9775 68.6154 32.1473 68.6033L48.0829 67.4653L52.4496 74.0152C52.5581 74.1779 52.705 74.3112 52.8774 74.4035C53.0497 74.4957 53.2422 74.5439 53.4376 74.544H53.4552C53.6536 74.541 53.8481 74.4884 54.0209 74.391C54.1938 74.2935 54.3395 74.1542 54.4446 73.986L59.7642 65.4744L64.7017 68.4369C64.8541 68.5283 65.0251 68.5842 65.2021 68.6007C65.3791 68.6171 65.5574 68.5936 65.7241 68.5319C65.8908 68.4703 66.0415 68.372 66.1651 68.2443C66.2887 68.1166 66.3821 67.9628 66.4384 67.7942C68.3532 62.0512 67.3587 55.0017 66.7805 51.9812H71.2501C71.4467 51.9811 71.6401 51.9323 71.8132 51.8391C71.9862 51.7459 72.1334 51.6112 72.2416 51.4471ZM65.3126 49.6065C65.1322 49.6065 64.9541 49.6476 64.7919 49.7267C64.6297 49.8059 64.4877 49.9209 64.3767 50.0631C64.2656 50.2054 64.1884 50.3711 64.151 50.5476C64.1136 50.7241 64.1169 50.9069 64.1606 51.0819C64.1818 51.1673 66.123 59.0886 64.5924 65.6021L59.9861 62.8382C59.7192 62.6781 59.4002 62.6291 59.0976 62.7018C58.795 62.7746 58.5331 62.9632 58.3681 63.2271L53.4054 71.1673L49.6756 65.5727C49.5672 65.41 49.4203 65.2767 49.2479 65.1845C49.0756 65.0922 48.8831 65.044 48.6876 65.044C48.6596 65.044 48.6312 65.045 48.6029 65.0471L33.3445 66.1369L34.4344 50.8786C34.4493 50.6693 34.4086 50.4598 34.3162 50.2714C34.2239 50.083 34.0833 49.9224 33.9088 49.806L28.3141 46.0762L36.2544 41.1135C36.5183 40.9485 36.7069 40.6866 36.7796 40.384C36.8523 40.0814 36.8034 39.7623 36.6433 39.4955L33.8795 34.8893C40.3827 33.3634 48.3145 35.2998 48.3995 35.321C48.5746 35.3648 48.7574 35.3681 48.9339 35.3306C49.1105 35.2932 49.2761 35.216 49.4184 35.105C49.5607 34.9939 49.6757 34.8519 49.7549 34.6897C49.834 34.5275 49.8751 34.3494 49.8751 34.169V30.2103C54.914 33.5148 55.6774 40.1838 55.7923 42.0099L54.686 43.1162C49.6952 37.7972 43.047 37.7315 42.7501 37.7315C42.4352 37.7315 42.1332 37.8566 41.9104 38.0793C41.6877 38.302 41.5626 38.604 41.5626 38.919C41.5626 39.2339 41.6877 39.5359 41.9104 39.7586C42.1332 39.9813 42.4352 40.1065 42.7501 40.1065C42.8055 40.1065 47.4878 40.151 51.5584 43.4463C42.6053 43.1576 37.6201 46.0751 37.3892 46.2133C37.1194 46.3752 36.9248 46.6375 36.8483 46.9427C36.7717 47.2478 36.8194 47.5709 36.9808 47.841C37.1423 48.111 37.4043 48.306 37.7093 48.383C38.0144 48.46 38.3375 48.4128 38.6078 48.2518C38.6595 48.2212 43.4407 45.4658 51.9611 45.8412L39.5354 58.2669C39.3127 58.4896 39.1876 58.7917 39.1876 59.1066C39.1876 59.4216 39.3127 59.7236 39.5354 59.9463C39.7581 60.169 40.0602 60.2941 40.3751 60.2941C40.6901 60.2941 40.9921 60.169 41.2149 59.9463L53.6404 47.5206C54.0154 56.0336 51.2654 60.8138 51.2299 60.8738C51.0683 61.1441 51.0207 61.4675 51.0975 61.773C51.1744 62.0784 51.3694 62.3408 51.6398 62.5024C51.9101 62.664 52.2335 62.7117 52.539 62.6348C52.8444 62.5579 53.1068 62.3629 53.2684 62.0926C53.4066 61.8622 56.3234 56.8784 56.0357 47.9282C59.3045 51.9831 59.3751 56.6721 59.3751 56.7343C59.3755 57.0492 59.501 57.3511 59.7239 57.5735C59.9469 57.796 60.2491 57.9207 60.564 57.9204C60.879 57.92 61.1809 57.7945 61.4033 57.5716C61.6258 57.3486 61.7505 57.0464 61.7501 56.7315C61.7501 56.4346 61.6844 49.7864 56.3654 44.7956L57.4716 43.6893C59.3003 43.8045 65.9674 44.5686 69.2713 49.6065H65.3126Z" fill="#FCE38A"/>
<path d="M59.375 16.3571C59.526 16.357 59.6756 16.328 59.8157 16.2719C60.0811 16.1656 66.3321 13.6107 67.6517 8.33223C67.6908 8.18052 67.6995 8.02258 67.6773 7.8675C67.655 7.71243 67.6023 7.56328 67.5222 7.42866C67.4421 7.29404 67.3361 7.17661 67.2104 7.08312C67.0847 6.98964 66.9417 6.92195 66.7898 6.88396C66.6378 6.84597 66.4798 6.83842 66.3249 6.86176C66.1699 6.8851 66.0212 6.93886 65.8871 7.01995C65.7531 7.10103 65.6364 7.20784 65.5438 7.33422C65.4513 7.46059 65.3846 7.60404 65.3477 7.75629C64.3247 11.8483 58.9864 14.0454 58.9321 14.0674C58.676 14.1701 58.4636 14.3589 58.3315 14.6011C58.1994 14.8434 58.1559 15.1242 58.2083 15.3951C58.2607 15.666 58.4058 15.9102 58.6187 16.0858C58.8317 16.2613 59.0991 16.3573 59.375 16.3571Z" fill="#F38181"/>
<path d="M71.6179 8.10252C71.3184 8.00498 70.9925 8.03039 70.7118 8.17313C70.4311 8.31588 70.2186 8.56428 70.121 8.8637C67.6537 16.4383 60.3276 18.7496 60.2219 18.7814C60.0715 18.8252 59.9313 18.8983 59.8093 18.9965C59.6873 19.0947 59.5859 19.2161 59.511 19.3536C59.4362 19.4912 59.3892 19.6422 59.3729 19.7979C59.3566 19.9537 59.3713 20.1111 59.4161 20.2612C59.4609 20.4113 59.5349 20.551 59.634 20.6723C59.733 20.7937 59.855 20.8942 59.9931 20.9682C60.1311 21.0422 60.2824 21.0881 60.4383 21.1034C60.5942 21.1186 60.7515 21.1029 60.9013 21.0571C61.2516 20.9532 69.5115 18.4032 72.3791 9.59936C72.4766 9.29992 72.4512 8.97401 72.3085 8.69331C72.1657 8.4126 71.9173 8.20009 71.6179 8.10252Z" fill="#F38181"/>
<path d="M17.7277 45.2979C17.7856 45.1531 17.8145 44.9983 17.8126 44.8423C17.8107 44.6864 17.7781 44.5323 17.7167 44.389C17.6552 44.2456 17.5662 44.1158 17.4545 44.0068C17.3429 43.8979 17.2109 43.812 17.0661 43.7541C16.0552 43.3154 15.0961 42.7657 14.2065 42.1152C12.8759 41.1476 11.1791 39.5516 10.6521 37.4439C10.6152 37.2917 10.5486 37.1482 10.456 37.0218C10.3634 36.8955 10.2467 36.7887 10.1127 36.7076C9.97864 36.6265 9.82988 36.5727 9.67496 36.5494C9.52005 36.526 9.36205 36.5336 9.21007 36.5716C9.05809 36.6096 8.91512 36.6773 8.78941 36.7707C8.66371 36.8642 8.55774 36.9817 8.47761 37.1163C8.39749 37.2509 8.34479 37.4 8.32256 37.5551C8.30033 37.7102 8.30901 37.8681 8.34808 38.0198C9.66769 43.2983 15.9184 45.8532 16.1841 45.9595C16.3289 46.0175 16.4837 46.0465 16.6397 46.0446C16.7957 46.0428 16.9498 46.0102 17.0932 45.9488C17.2365 45.8873 17.3664 45.7982 17.4753 45.6865C17.5842 45.5748 17.67 45.4428 17.7278 45.2979H17.7277Z" fill="#F38181"/>
<path d="M5.87898 38.5508C5.77877 38.2547 5.56585 38.0101 5.2864 37.87C5.00695 37.7299 4.68353 37.7056 4.3863 37.8024C4.08907 37.8993 3.84201 38.1094 3.69873 38.3872C3.55545 38.6651 3.5275 38.9882 3.62095 39.2865C6.48847 48.0903 14.7484 50.64 15.0987 50.7442C15.4 50.8327 15.724 50.7983 16 50.6485C16.2759 50.4987 16.4813 50.2457 16.5712 49.9449C16.6611 49.644 16.6282 49.3198 16.4797 49.0432C16.3312 48.7665 16.0791 48.56 15.7787 48.4687C15.7047 48.4464 8.35166 46.1422 5.87898 38.5508Z" fill="#F38181"/>
</svg>
