<svg width="54" height="60" viewBox="0 0 54 60" fill="none" xmlns="http://www.w3.org/2000/svg">
<path d="M1 29.1351L2.78987 24.001L25.5126 39.8357V57.4203L24.9499 56.8576L9.75683 40.5391L1 29.1351Z" fill="white"/>
<path d="M44.5743 39.4137L27.9745 57.4203V50.2458L50.5531 24.001L52.5225 29.1351L44.5743 39.4137Z" fill="white"/>
<path d="M1.11292 22.5467L9.07551 0L18.1696 18.1463H25.5874V33.2753V50.9606L9.07551 33.2753L1.11292 22.5467Z" fill="#FECA28"/>
<path d="M52.5345 22.5467L44.5719 0L35.4778 18.1463H28.06V33.2753V50.9606L44.5719 33.2753L52.5345 22.5467Z" fill="#FECA28"/>
<path d="M9.03584 39.6874L1.07324 28.9588L9.03584 6.41211L18.13 24.5585H25.5478V39.6874M9.03584 39.6874H25.5478M9.03584 39.6874L25.5478 57.3727V39.6874M44.5323 39.6874L52.4949 28.9588L44.5323 6.41211L35.4381 24.5585H28.0203V39.6874M44.5323 39.6874H28.0203M44.5323 39.6874L28.0203 57.3727V39.6874" stroke="black" stroke-width="1.5"/>
</svg>
