<svg width="61" height="14" viewBox="0 0 61 14" fill="none" xmlns="http://www.w3.org/2000/svg">
<path d="M8.45 9.796L0.332 0.291999H0.17V13H1.466V3.55L9.584 13.126H9.746V0.399999H8.45V9.796ZM21.79 0.399999H13.528V1.696H21.79V0.399999ZM21.232 6.052H13.528V7.348H21.232V6.052ZM13.528 11.686V13H21.898V11.686H13.528ZM28.8315 3.604L26.5275 0.399999H24.9435L28.0395 4.738L28.8315 3.604ZM30.9195 6.52L35.3115 0.399999H33.7095L29.3355 6.52L33.9615 13H35.5635L30.9195 6.52ZM24.6915 13H26.2935L28.9575 9.256L28.1655 8.14L24.6915 13ZM39.6457 0.399999H38.3497C38.3497 0.399999 38.3497 1.192 38.3497 2.308H39.6457C39.6457 1.21 39.6457 0.399999 39.6457 0.399999ZM43.1017 11.848C41.2297 11.848 39.6457 10.57 39.6457 8.05C39.6457 7.15 39.6457 5.512 39.6457 3.982H38.3497C38.3497 5.386 38.3497 6.898 38.3497 7.996C38.3497 11.596 40.5097 13.144 43.1017 13.144C45.4957 13.144 47.4037 11.758 47.6737 8.716L46.4137 8.158C46.3597 10.57 44.9377 11.848 43.1017 11.848ZM46.4137 0.399999C46.4137 0.399999 46.4137 3.658 46.4137 6.196L47.7097 6.754C47.7097 4.072 47.7097 0.399999 47.7097 0.399999H46.4137ZM51.0291 10.372C51.3531 11.254 52.1811 12.136 53.3871 12.658L53.9811 11.506C53.1891 11.182 52.5591 10.642 52.2711 9.94L51.0291 10.372ZM56.0691 5.998C53.6751 5.602 52.6491 5.098 52.6491 3.838C52.6491 2.344 53.8731 1.57 55.8531 1.57C55.8891 1.57 55.9251 1.57 55.9611 1.57L56.8071 0.364C56.5011 0.309999 56.1771 0.274 55.8531 0.274C52.7391 0.274 51.3531 1.984 51.3531 3.838C51.3711 6.142 53.3691 6.844 55.8351 7.294C58.3011 7.744 59.3631 8.122 59.3631 9.472C59.3631 11.254 57.3831 11.848 56.0511 11.848C55.9971 11.848 56.0331 11.848 55.9791 11.848L55.3311 13.108C55.6011 13.126 55.7991 13.144 56.0871 13.144C58.4091 13.144 60.6771 11.902 60.6771 9.472C60.6771 7.006 58.3731 6.394 56.0691 5.998Z" fill="black"/>
</svg>
