<svg width="20" height="20" viewBox="0 0 20 20" fill="none" xmlns="http://www.w3.org/2000/svg">
<rect x="2.12402" y="13.5236" width="4.63414" height="0.614752" rx="0.307376" fill="#616161"/>
<rect x="2.34985" y="6.90186" width="5.22488" height="0.699687" rx="0.349843" transform="rotate(30 2.34985 6.90186)" fill="#616161"/>
<rect width="5.22488" height="0.699687" rx="0.349843" transform="matrix(-0.866025 0.5 0.5 0.866025 6.52502 6.90186)" fill="#616161"/>
<rect x="4.78735" y="5.86182" width="5.22488" height="0.699687" rx="0.349843" transform="rotate(90 4.78735 5.86182)" fill="#616161"/>
<rect x="7.83997" y="13.6773" width="4.32677" height="0.307376" rx="0.153688" fill="#577590" stroke="#F38181" stroke-width="0.307376"/>
<rect x="7.9126" y="6.90186" width="5.22488" height="0.699687" rx="0.349843" transform="rotate(30 7.9126 6.90186)" fill="#F38181"/>
<rect x="-0.0640258" y="0.238947" width="4.87504" height="0.349843" rx="0.174922" transform="matrix(-0.866025 0.5 0.5 0.866025 11.8485 6.96588)" fill="#577590" stroke="#F38181" stroke-width="0.349843"/>
<rect x="10.1749" y="6.03674" width="4.87504" height="0.349843" rx="0.174922" transform="rotate(90 10.1749 6.03674)" fill="#577590" stroke="#F38181" stroke-width="0.349843"/>
<rect x="13.249" y="13.5236" width="4.63414" height="0.614752" rx="0.307376" fill="#616161"/>
<rect x="13.4749" y="6.90186" width="5.22488" height="0.699687" rx="0.349843" transform="rotate(30 13.4749 6.90186)" fill="#616161"/>
<rect width="5.22488" height="0.699687" rx="0.349843" transform="matrix(-0.866025 0.5 0.5 0.866025 17.6501 6.90186)" fill="#616161"/>
<rect x="15.9124" y="5.86182" width="5.22488" height="0.699687" rx="0.349843" transform="rotate(90 15.9124 5.86182)" fill="#616161"/>
</svg>
