<svg width="13" height="16" viewBox="0 0 13 16" fill="none" xmlns="http://www.w3.org/2000/svg">
<path d="M5.64416 14.2646H3.87866C3.70607 14.2646 3.56616 14.4045 3.56616 14.5771C3.56616 14.7497 3.70607 14.8896 3.87866 14.8896H5.64416C5.81676 14.8896 5.95666 14.7497 5.95666 14.5771C5.95666 14.4045 5.81676 14.2646 5.64416 14.2646Z" fill="#616161"/>
<path fill-rule="evenodd" clip-rule="evenodd" d="M9.52281 14.2303V11.9502C9.39844 11.9502 9.03654 11.8196 8.89781 11.6915V13.1543H7.0115H0.624999V1.90825H2.9374V1.92512C2.9374 2.09772 3.07731 2.23762 3.2499 2.23762H6.27287C6.44547 2.23762 6.58537 2.09772 6.58537 1.92512V1.90825H8.89781V3.53629C9.08593 3.36695 9.21979 3.29948 9.52281 3.26411V1.4395C9.52281 1.43166 9.52249 1.42391 9.52193 1.41622C9.49559 0.630813 8.84974 0 8.05959 0H1.46322C0.673062 0 0.0272187 0.630813 0.000874996 1.41622C0.000312496 1.42391 0 1.43169 0 1.4395V14.5339C0 15.3423 0.656375 16 1.46322 16H8.05959C8.8664 16 9.52281 15.3423 9.52281 14.5339V14.2303ZM8.05959 0.625H1.46322C1.06359 0.625 0.728374 0.907094 0.644968 1.28325H3.2499C3.4225 1.28325 3.5624 1.42316 3.5624 1.59575V1.61263H5.9604V1.59575C5.9604 1.42316 6.10031 1.28325 6.2729 1.28325H8.87787C8.79443 0.907094 8.45921 0.625 8.05959 0.625ZM1.46322 15.375H8.05959C8.52181 15.375 8.89781 14.9977 8.89781 14.5338V14.2224V13.7793H0.624999V14.5339C0.624999 14.9977 1.00103 15.375 1.46322 15.375Z" fill="#616161"/>
<path fill-rule="evenodd" clip-rule="evenodd" d="M11.9194 9.6118V7.45226C11.9194 6.35365 11.221 5.41492 10.2444 5.05605C10.2542 5.00283 10.2592 4.94849 10.2592 4.89356C10.2592 4.40084 9.85804 4 9.36501 4C9.35441 4 9.34386 4.00019 9.33334 4.00055C9.11106 4.0151 8.88924 4.10659 8.73441 4.26065C8.57168 4.42256 8.47082 4.64652 8.47082 4.89356C8.47082 4.94855 8.47579 5.00289 8.48553 5.05608C7.50903 5.41498 6.81063 6.35368 6.81063 7.45229V7.61202L6.8106 8.21099V9.6118C6.35621 9.6564 6 10.0406 6 10.5065C6 10.6542 6.03579 10.7937 6.09917 10.9167C6.24433 11.1214 6.34217 11.2109 6.53511 11.3286C6.64644 11.3781 6.7696 11.4056 6.89907 11.4056H8.37363C8.41326 11.807 8.69225 12.1391 9.06547 12.2569C9.30054 12.3542 9.42829 12.3431 9.6645 12.2569C10.0377 12.1391 10.3167 11.807 10.3563 11.4056H11.8309C12.3267 11.4056 12.73 11.0023 12.73 10.5065C12.73 10.0406 12.3738 9.65637 11.9194 9.6118ZM9.36498 4.59899C9.20223 4.59899 9.06982 4.73111 9.06982 4.89353C9.06982 4.90141 9.07012 4.90923 9.07071 4.91699C9.16728 4.90587 9.26549 4.90015 9.36498 4.90015C9.46448 4.90015 9.56266 4.90587 9.65923 4.91699C9.65982 4.9092 9.66015 4.90138 9.66015 4.89353C9.66015 4.73114 9.52774 4.59899 9.36498 4.59899ZM9.36498 5.49918C8.2868 5.49918 7.40962 6.37531 7.40962 7.45223V9.60746H11.3203V7.45223C11.3203 6.37531 10.4432 5.49918 9.36498 5.49918ZM9.36451 11.7037H9.36549C9.5502 11.7037 9.70583 11.5768 9.7498 11.4056H8.9802C9.02417 11.5768 9.1798 11.7037 9.36451 11.7037ZM6.89907 10.8066H11.8309C11.9964 10.8066 12.131 10.672 12.131 10.5065C12.131 10.3411 11.9963 10.2065 11.8309 10.2065H6.89907C6.73359 10.2065 6.59899 10.3411 6.59899 10.5065C6.59899 10.672 6.73362 10.8066 6.89907 10.8066Z" fill="#F38181"/>
</svg>
