<svg width="377" height="384" viewBox="0 0 377 384" fill="none" xmlns="http://www.w3.org/2000/svg">
<ellipse cx="188.082" cy="192" rx="188.082" ry="192" fill="#577590"/>
<path d="M49 194.655L58.6852 166.873L181.642 252.557V347.71L178.597 344.665L96.3846 256.364L49 194.655Z" fill="white"/>
<path d="M284.787 250.274L194.963 347.71V308.888L317.139 166.873L327.797 194.655L284.787 250.274Z" fill="white"/>
<path d="M49.6108 159.004L92.6977 37L141.907 135.193H182.046V217.058V312.756L92.6977 217.058L49.6108 159.004Z" fill="#577590"/>
<path d="M327.861 159.004L284.774 37L235.565 135.193H195.426V217.058V312.756L284.774 217.058L327.861 159.004Z" fill="#577590"/>
<path d="M92.4834 251.754L49.3965 193.7L92.4834 71.6963L141.693 169.889H181.832V251.754M92.4834 251.754H181.832M92.4834 251.754L181.832 347.452V251.754M284.56 251.754L327.647 193.7L284.56 71.6963L235.35 169.889H195.212V251.754M284.56 251.754H195.212M284.56 251.754L195.212 347.452V251.754" stroke="black" stroke-width="9"/>
</svg>
