<svg width="8" height="15" viewBox="0 0 8 15" fill="none" xmlns="http://www.w3.org/2000/svg">
<path d="M1.17008 -1.464e-06C1.31948 -0.000509759 1.46709 0.0324626 1.60207 0.0964913C1.73704 0.16052 1.85596 0.253979 1.95008 0.369999L6.78008 6.37C6.92716 6.54893 7.00757 6.77337 7.00757 7.005C7.00757 7.23662 6.92716 7.46107 6.78008 7.64L1.78008 13.64C1.61034 13.8442 1.36643 13.9726 1.102 13.997C0.837577 14.0214 0.574296 13.9397 0.37008 13.77C0.165863 13.6003 0.0374389 13.3563 0.0130592 13.0919C-0.0113205 12.8275 0.0703412 12.5642 0.24008 12.36L4.71008 7L0.390081 1.64C0.267798 1.49321 0.190121 1.31447 0.166241 1.12492C0.142362 0.935376 0.173279 0.742951 0.255335 0.570423C0.337391 0.397896 0.46715 0.252485 0.629261 0.151394C0.791371 0.0503039 0.979047 -0.00223308 1.17008 -1.464e-06Z" fill="#D6D6D6"/>
</svg>
