<svg width="20" height="21" viewBox="0 0 20 21" fill="none" xmlns="http://www.w3.org/2000/svg">
<path d="M3.75 12.375C3.25272 12.375 2.77581 12.1775 2.42417 11.8258C2.07254 11.4742 1.875 10.9973 1.875 10.5C1.875 10.0027 2.07254 9.52581 2.42417 9.17417C2.77581 8.82254 3.25272 8.625 3.75 8.625C4.24728 8.625 4.72419 8.82254 5.07583 9.17417C5.42746 9.52581 5.625 10.0027 5.625 10.5C5.625 10.9973 5.42746 11.4742 5.07583 11.8258C4.72419 12.1775 4.24728 12.375 3.75 12.375ZM10 12.375C9.50272 12.375 9.02581 12.1775 8.67417 11.8258C8.32254 11.4742 8.125 10.9973 8.125 10.5C8.125 10.0027 8.32254 9.52581 8.67417 9.17417C9.02581 8.82254 9.50272 8.625 10 8.625C10.4973 8.625 10.9742 8.82254 11.3258 9.17417C11.6775 9.52581 11.875 10.0027 11.875 10.5C11.875 10.9973 11.6775 11.4742 11.3258 11.8258C10.9742 12.1775 10.4973 12.375 10 12.375ZM16.25 12.375C15.7527 12.375 15.2758 12.1775 14.9242 11.8258C14.5725 11.4742 14.375 10.9973 14.375 10.5C14.375 10.0027 14.5725 9.52581 14.9242 9.17417C15.2758 8.82254 15.7527 8.625 16.25 8.625C16.7473 8.625 17.2242 8.82254 17.5758 9.17417C17.9275 9.52581 18.125 10.0027 18.125 10.5C18.125 10.9973 17.9275 11.4742 17.5758 11.8258C17.2242 12.1775 16.7473 12.375 16.25 12.375Z" fill="#F38181"/>
</svg>
